<?xml version="1.0" standalone="no"?>
<!DOCTYPE svg PUBLIC "-//W3C//DTD SVG 20010904//EN"
 "http://www.w3.org/TR/2001/REC-SVG-20010904/DTD/svg10.dtd">
<svg version="1.0" xmlns="http://www.w3.org/2000/svg"
 width="16.000000pt" height="16.000000pt" viewBox="0 0 16.000000 16.000000"
 preserveAspectRatio="xMidYMid meet">
<metadata>
Created by potrace 1.11, written by Peter Selinger 2001-2013
</metadata>
<g transform="translate(0.000000,16.000000) scale(0.004000,-0.004000)"
fill="#000000" stroke="none">
<path d="M10 1995 l0 -1995 1995 0 1995 0 0 1995 0 1995 -1995 0 -1995 0 0
-1995z m2393 1067 c115 -32 201 -78 266 -141 95 -95 146 -213 156 -369 16
-218 -69 -416 -221 -517 l-56 -37 54 -31 c171 -98 269 -301 255 -532 -13 -217
-113 -381 -282 -464 -152 -74 -229 -81 -887 -81 l-538 0 0 1101 0 1100 588 -3
c568 -4 590 -5 665 -26z"/>
<path d="M1640 2430 l0 -232 263 4 c251 3 264 4 310 26 34 17 55 37 75 70 24
42 27 57 27 137 0 104 -21 153 -82 195 -36 25 -37 25 -315 28 l-278 3 0 -231z"/>
<path d="M1640 1550 l0 -230 278 1 c279 1 310 4 359 39 92 67 97 290 8 368
-19 17 -51 36 -72 41 -22 7 -150 11 -305 11 l-268 0 0 -230z"/>
</g>
</svg>
